<svg xmlns="http://www.w3.org/2000/svg" version="1.1" xmlns:xlink="http://www.w3.org/1999/xlink" width="78" height="78"><svg width="78" height="78" viewBox="0 0 78 78" fill="none" xmlns="http://www.w3.org/2000/svg">
<path d="M39 18C27.4208 18 18 27.4211 18 39C18 50.5789 27.4208 60 39 60C50.5792 60 60 50.5789 60 39C60 27.4211 50.5792 18 39 18ZM50.9241 37.6704C50.8178 35.3379 50.4353 33.0611 49.7923 30.8819C51.4569 30.5564 53.1046 30.1525 54.7315 29.6738C56.1355 32.0494 57.0209 34.7668 57.2283 37.6704H50.9228H50.9241ZM57.2296 40.3296C57.0209 43.2332 56.1355 45.9519 54.7328 48.3262C53.1046 47.8462 51.4582 47.4423 49.7936 47.1169C50.4366 44.9389 50.8191 42.6608 50.9254 40.3296H57.2309H57.2296ZM53.1124 27.3553C51.7317 27.7377 50.329 28.0657 48.9056 28.3354C47.9372 25.9434 46.6395 23.7059 45.0346 21.6874C48.2211 22.8081 51.007 24.7911 53.1124 27.3565V27.3553ZM40.4688 57.2813C40.4338 57.2838 40.3988 57.2876 40.3625 57.2902V48.7529C42.3161 48.8023 44.2425 48.958 46.1378 49.2151C44.7922 52.3276 42.8463 55.0742 40.4688 57.2813ZM37.5338 57.2813C35.1562 55.0742 33.2104 52.3276 31.8647 49.2151C33.76 48.958 35.6865 48.8023 37.6401 48.7529V57.2902C37.6051 57.2876 37.5688 57.2851 37.5338 57.2813ZM37.5338 20.7174C37.5688 20.7149 37.6038 20.7111 37.6401 20.7086V29.2458C35.6865 29.1965 33.76 29.0407 31.8647 28.7836C33.2117 25.6711 35.1562 22.9246 37.5338 20.7174ZM40.4675 20.7174C42.8463 22.9246 44.7909 25.6711 46.1366 28.7836C44.2412 29.0407 42.3148 29.1965 40.3612 29.2458V20.7086C40.3962 20.7111 40.4312 20.7136 40.4675 20.7174ZM37.6388 31.9076V37.6691H29.8022C29.9124 35.4696 30.2961 33.3473 30.9158 31.3428C33.1313 31.6644 35.374 31.8531 37.6388 31.9076ZM37.6388 40.3283V46.0899C35.374 46.1444 33.1313 46.333 30.9158 46.6547C30.2961 44.6501 29.9124 42.5279 29.8022 40.3283H37.6388ZM40.3612 46.0899V40.3283H48.1978C48.0876 42.5279 47.7039 44.6501 47.0842 46.6547C44.8687 46.333 42.626 46.1444 40.3612 46.0899ZM40.3612 37.6691V31.9076C42.626 31.8531 44.8687 31.6644 47.0842 31.3428C47.7039 33.3473 48.0876 35.4696 48.1978 37.6691H40.3612ZM32.9667 21.6861C31.3617 23.7046 30.0641 25.9421 29.0957 28.3341C27.6723 28.0644 26.2696 27.7364 24.8889 27.354C26.9943 24.7885 29.7802 22.8068 32.9667 21.6849V21.6861ZM27.0759 37.6691H20.7704C20.9791 34.7656 21.8645 32.0469 23.2672 29.6726C24.8954 30.1525 26.5418 30.5564 28.2064 30.8806C27.5634 33.0599 27.1809 35.3366 27.0746 37.6691H27.0759ZM28.2077 47.1156C26.5431 47.4423 24.8954 47.8462 23.2685 48.3249C21.8645 45.9493 20.9791 43.2319 20.7717 40.3283H27.0772C27.1835 42.6595 27.566 44.9376 28.209 47.1156H28.2077ZM24.8889 50.6422C26.2696 50.2598 27.6723 49.9318 29.0957 49.6633C30.0641 52.0554 31.3617 54.2929 32.9667 56.3113C29.7815 55.1907 26.9956 53.2077 24.8889 50.6435V50.6422ZM45.0333 56.3101C46.637 54.2916 47.9359 52.0541 48.9043 49.6621C50.3277 49.9318 51.7304 50.2598 53.1111 50.6409C51.0057 53.2064 48.2198 55.1881 45.0333 56.3088V56.3101Z" fill="#1E1E1E"></path>
<path d="M77.3325 31.1347L74.2045 31.1102C73.684 31.1063 73.2462 30.7234 73.1687 30.209C71.1591 16.8412 61.0168 6.06591 47.5282 5.11447C47.2312 5.09384 47 4.84502 47 4.54721L47.1162 0.863932C47.1317 0.365006 47.5566 -0.0269149 48.0552 0.0014478C63.7419 0.911632 76.1198 14.3195 77.8595 30.5481C77.8931 30.8626 77.6464 31.1372 77.33 31.1347H77.3325Z" fill="#2D93E6"></path>
<path d="M47.2866 10.4889V13.7699C47.2866 14.109 47.563 14.421 47.8988 14.4674C55.83 15.5697 62.7913 23.0226 64.7247 30.6109C64.788 30.8623 65.0153 31.0364 65.2749 31.0389L68.6186 31.0634C69.0797 31.0673 69.4271 30.6406 69.325 30.1919C66.875 19.5018 58.4104 10.5172 48.0215 9.80044C47.6237 9.77336 47.2879 10.0918 47.2879 10.4889H47.2866Z" fill="#2D93E6"></path>
</svg><style>@media (prefers-color-scheme: light) { :root { filter: none; } }
@media (prefers-color-scheme: dark) { :root { filter: none; } }
</style></svg>