<svg width="169" height="60" viewBox="0 0 169 60" fill="none" xmlns="http://www.w3.org/2000/svg">
<g clip-path="url(#clip0_30_335)">
<path d="M86.1014 38.1995V47.242H82.7848V45.4668C81.8484 46.8707 80.3051 47.5669 78.6713 47.5669C75.932 47.5669 73.9883 45.7852 73.9883 43.3834C73.9883 41.3761 75.0538 39.8226 77.4922 39.2309C78.0294 39.1006 78.5822 39.0388 79.1363 39.0233L82.6931 38.9279V38.1376C82.6931 36.7066 81.4597 35.8995 80.1876 35.8995C78.9154 35.8995 78.0759 36.6344 77.8357 37.8488H74.5165C74.4506 35.0873 76.7315 33.0903 80.1656 33.0903C83.5997 33.0903 86.1014 34.7805 86.1014 38.2008V38.1995ZM82.6944 41.9111V40.9932L79.4888 41.3039C78.3123 41.4934 77.2868 42.1857 77.2868 43.1836C77.2868 44.1814 78.3936 44.8299 79.5947 44.8299C81.3008 44.8299 82.6944 43.774 82.6944 41.9111Z" fill="#1E1E1E"/>
<path d="M108.744 38.1995V47.242H105.427V45.4668C104.491 46.8707 102.948 47.5669 101.314 47.5669C98.5746 47.5669 96.6309 45.7852 96.6309 43.3834C96.6309 41.3761 97.6964 39.8226 100.135 39.2309C100.672 39.1006 101.225 39.0388 101.779 39.0233L105.336 38.9279V38.1376C105.336 36.7066 104.102 35.8995 102.83 35.8995C101.558 35.8995 100.719 36.6344 100.478 37.8488H97.1591C97.0932 35.0873 99.374 33.0903 102.808 33.0903C106.242 33.0903 108.744 34.7805 108.744 38.2008V38.1995ZM105.337 41.9111V40.9932L102.131 41.3039C100.955 41.4934 99.9294 42.1857 99.9294 43.1836C99.9294 44.1814 101.036 44.8299 102.237 44.8299C103.943 44.8299 105.337 43.774 105.337 41.9111Z" fill="#1E1E1E"/>
<path d="M92.9644 32.5321V33.4229H95.9504V36.3056H92.9644V47.2433H89.4566V36.3056H87.4199V33.4229H89.4566V32.6133C89.4566 28.9055 90.9819 27.5389 93.9498 27.5389C94.7661 27.5389 95.8626 27.5879 95.8626 27.5879V30.41C95.5991 30.3868 95.0179 30.3855 94.6343 30.3855C93.3854 30.3855 92.9644 30.6988 92.9644 32.5321Z" fill="#1E1E1E"/>
<path d="M119.612 33.2876V36.7143C118.452 36.6873 118.164 36.7156 117.852 36.7156C115.93 36.7156 114.921 37.7753 114.921 39.0594V47.2433H111.443V33.4642H114.872V35.4148C115.869 34.1888 116.742 33.2889 118.113 33.2889H119.613L119.612 33.2876Z" fill="#1E1E1E"/>
<path d="M121.055 29.7022C121.055 28.5742 121.871 27.6678 123.121 27.6678C124.371 27.6678 125.163 28.5755 125.163 29.7022C125.163 30.829 124.322 31.7856 123.121 31.7856C121.92 31.7856 121.055 30.8535 121.055 29.7022Z" fill="#1E1E1E"/>
<path d="M124.897 33.4409H121.318V47.2419H124.897V33.4409Z" fill="#1E1E1E"/>
<path d="M126.484 41.6133L130.134 41.4508C130.422 43.2029 131.563 44.5449 134.091 44.5449C136.253 44.5449 137.213 43.3395 137.213 42.0877C137.213 41.0022 136.544 40.0894 135.103 39.7839L131.542 38.7963C128.707 38.184 127.211 36.2089 127.211 33.7052C127.211 30.5621 129.384 28.132 133.708 28.132C137.675 28.132 139.874 30.4577 140.226 33.5299L136.731 33.8586C136.466 32.2458 135.531 31.2029 133.61 31.2029C131.688 31.2029 130.811 32.2678 130.811 33.4629C130.811 34.4916 131.258 35.1595 132.651 35.465L136.49 36.6433C139.565 37.2557 140.82 39.5402 140.82 41.4727C140.82 44.8105 138.468 47.5643 133.949 47.5643C129.43 47.5643 126.487 45.1792 126.487 41.612L126.484 41.6133Z" fill="#1E1E1E"/>
<path d="M58.1724 41.6133L61.8222 41.4508C62.1102 43.2029 63.2506 44.5449 65.7794 44.5449C67.9414 44.5449 68.901 43.3395 68.901 42.0877C68.901 41.0022 68.232 40.0894 66.7906 39.7839L63.2299 38.7963C60.3951 38.184 58.8995 36.2089 58.8995 33.7052C58.8995 30.5621 61.0718 28.132 65.3958 28.132C69.3633 28.132 71.5615 30.4577 71.9141 33.5299L68.4192 33.8586C68.1545 32.2458 67.2194 31.2029 65.2977 31.2029C63.3759 31.2029 62.4989 32.2678 62.4989 33.4629C62.4989 34.4916 62.9458 35.1595 64.3394 35.465L68.1777 36.6433C71.2528 37.2557 72.5082 39.5402 72.5082 41.4727C72.5082 44.8105 70.1563 47.5643 65.6373 47.5643C61.1183 47.5643 58.1749 45.1792 58.1749 41.612L58.1724 41.6133Z" fill="#1E1E1E"/>
<path d="M142.454 29.6855C142.454 28.5574 143.27 27.6511 144.521 27.6511C145.771 27.6511 146.562 28.5587 146.562 29.6855C146.562 30.8123 145.722 31.7689 144.521 31.7689C143.319 31.7689 142.454 30.8368 142.454 29.6855Z" fill="#1E1E1E"/>
<path d="M146.297 33.4242H142.718V47.2252H146.297V33.4242Z" fill="#1E1E1E"/>
<path d="M169 38.4431V47.242H165.571V39.3069C165.571 36.887 164.473 36.0529 163.224 36.0529C161.976 36.0529 160.728 37.3369 160.728 39.1986V47.242H157.274V39.3069C157.274 36.722 156.213 36.0529 154.964 36.0529C153.715 36.0529 152.337 37.2828 152.337 39.1986V47.242H148.877V33.4409H152.161V35.0757C152.909 33.869 154.473 33.1006 156.107 33.1006C157.884 33.1006 159.31 33.8806 160.03 35.4998C160.871 33.7993 162.81 33.1006 164.515 33.1006C167.182 33.1006 168.999 34.988 168.999 38.4418L169 38.4431Z" fill="#1E1E1E"/>
<path d="M20.9213 17.2394C9.38545 17.2394 0 26.8311 0 38.6197C0 50.4083 9.38545 60 20.9213 60C32.4571 60 41.8425 50.4083 41.8425 38.6197C41.8425 26.8311 32.4571 17.2394 20.9213 17.2394ZM32.8006 37.266C32.6947 34.8913 32.3137 32.5733 31.6731 30.3545C33.3314 30.0232 34.973 29.612 36.5938 29.1246C37.9925 31.5432 38.8746 34.3099 39.0813 37.266H32.7993H32.8006ZM39.0826 39.9734C38.8746 42.9295 37.9925 45.6975 36.5951 48.1148C34.973 47.6261 33.3327 47.2149 31.6744 46.8836C32.315 44.6661 32.696 42.3468 32.8019 39.9734H39.0838H39.0826ZM34.9807 26.7641C33.6052 27.1534 32.2078 27.4873 30.7897 27.7619C29.825 25.3266 28.5322 23.0486 26.9333 20.9936C30.1078 22.1345 32.8833 24.1534 34.9807 26.7654V26.7641ZM22.3846 57.2321C22.3497 57.2347 22.3148 57.2385 22.2786 57.2411V48.5492C24.225 48.5995 26.1442 48.7581 28.0323 49.0198C26.6918 52.1887 24.7532 54.985 22.3846 57.2321ZM19.4606 57.2321C17.0919 54.985 15.1534 52.1887 13.8128 49.0198C15.701 48.7581 17.6201 48.5995 19.5665 48.5492V57.2411C19.5316 57.2385 19.4954 57.2359 19.4606 57.2321ZM19.4606 20.006C19.4954 20.0035 19.5303 19.9996 19.5665 19.997V28.6889C17.6201 28.6386 15.701 28.48 13.8128 28.2183C15.1546 25.0494 17.0919 22.2531 19.4606 20.006ZM22.3833 20.006C24.7532 22.2531 26.6905 25.0494 28.0311 28.2183C26.1429 28.48 24.2237 28.6386 22.2774 28.6889V19.997C22.3122 19.9996 22.3471 20.0022 22.3833 20.006ZM19.5652 31.3988V37.2647H11.758C11.8677 35.0254 12.25 32.8646 12.8674 30.8238C15.0746 31.1513 17.3089 31.3434 19.5652 31.3988ZM19.5652 39.9721V45.838C17.3089 45.8934 15.0746 46.0855 12.8674 46.413C12.25 44.3722 11.8677 42.2114 11.758 39.9721H19.5652ZM22.2774 45.838V39.9721H30.0846C29.9748 42.2114 29.5925 44.3722 28.9752 46.413C26.768 46.0855 24.5336 45.8934 22.2774 45.838ZM22.2774 37.2647V31.3988C24.5336 31.3434 26.768 31.1513 28.9752 30.8238C29.5925 32.8646 29.9748 35.0254 30.0846 37.2647H22.2774ZM14.9105 20.9923C13.3117 23.0473 12.0188 25.3253 11.0541 27.7607C9.636 27.486 8.23858 27.1521 6.86311 26.7628C8.96054 24.1509 11.736 22.1332 14.9105 20.991V20.9923ZM9.0419 37.2647H2.75997C2.9679 34.3086 3.85001 31.5406 5.24743 29.1233C6.86957 29.612 8.5098 30.0232 10.1681 30.3533C9.52751 32.572 9.14651 34.89 9.04061 37.2647H9.0419ZM10.1694 46.8823C8.51109 47.2149 6.86957 47.6261 5.24872 48.1135C3.85001 45.6949 2.9679 42.9282 2.76126 39.9721H9.04319C9.1491 42.3455 9.53009 44.6648 10.1707 46.8823H10.1694ZM6.86311 50.4727C8.23858 50.0834 9.636 49.7495 11.0541 49.4762C12.0188 51.9115 13.3117 54.1895 14.9105 56.2445C11.7373 55.1036 8.96183 53.0847 6.86311 50.474V50.4727ZM26.932 56.2432C28.5296 54.1882 29.8237 51.9102 30.7884 49.4749C32.2065 49.7495 33.6039 50.0834 34.9794 50.4714C32.882 53.0834 30.1065 55.101 26.932 56.242V56.2432Z" fill="#1E1E1E"/>
<path d="M53.957 31.1345L50.829 31.11C50.3085 31.1062 49.8707 30.7233 49.7932 30.2089C47.7836 16.841 37.6413 6.06579 24.1527 5.11435C23.8557 5.09372 23.6245 4.8449 23.6245 4.54709L23.7407 0.86381C23.7562 0.364884 24.1812 -0.027037 24.6797 0.00132573C40.3664 0.91151 52.7443 14.3193 54.484 30.5479C54.5176 30.8625 54.2709 31.1371 53.9545 31.1345H53.957Z" fill="#1E1E1E"/>
<path d="M23.9111 10.4891V13.7702C23.9111 14.1092 24.1875 14.4212 24.5233 14.4676C32.4545 15.5699 39.4158 23.0229 41.3492 30.6112C41.4125 30.8626 41.6398 31.0366 41.8994 31.0392L45.2431 31.0637C45.7042 31.0676 46.0516 30.6408 45.9496 30.1922C43.4996 19.502 35.035 10.5175 24.646 9.80068C24.2482 9.77361 23.9124 10.092 23.9124 10.4891H23.9111Z" fill="#1E1E1E"/>
</g>
<defs>
<clipPath id="clip0_30_335">
<rect width="169" height="60" fill="white"/>
</clipPath>
</defs>
</svg>
