<svg width="169" height="60" viewBox="0 0 169 60" fill="none" xmlns="http://www.w3.org/2000/svg">
<g clip-path="url(#clip0_30_356)">
<path d="M86.1014 38.1992V47.2418H82.7848V45.4665C81.8484 46.8705 80.3051 47.5667 78.6713 47.5667C75.932 47.5667 73.9883 45.785 73.9883 43.3832C73.9883 41.3759 75.0538 39.8224 77.4922 39.2306C78.0294 39.1004 78.5822 39.0385 79.1363 39.023L82.6931 38.9276V38.1374C82.6931 36.7063 81.4597 35.8993 80.1876 35.8993C78.9154 35.8993 78.0759 36.6341 77.8357 37.8486H74.5165C74.4506 35.0871 76.7315 33.0901 80.1656 33.0901C83.5997 33.0901 86.1014 34.7802 86.1014 38.2005V38.1992ZM82.6944 41.9109V40.993L79.4888 41.3037C78.3123 41.4932 77.2868 42.1855 77.2868 43.1833C77.2868 44.1812 78.3936 44.8297 79.5947 44.8297C81.3008 44.8297 82.6944 43.7738 82.6944 41.9109Z" fill="#1E1E1E"/>
<path d="M108.744 38.1992V47.2418H105.427V45.4665C104.491 46.8705 102.948 47.5667 101.314 47.5667C98.5746 47.5667 96.6309 45.785 96.6309 43.3832C96.6309 41.3759 97.6964 39.8224 100.135 39.2306C100.672 39.1004 101.225 39.0385 101.779 39.023L105.336 38.9276V38.1374C105.336 36.7063 104.102 35.8993 102.83 35.8993C101.558 35.8993 100.719 36.6341 100.478 37.8486H97.1591C97.0932 35.0871 99.374 33.0901 102.808 33.0901C106.242 33.0901 108.744 34.7802 108.744 38.2005V38.1992ZM105.337 41.9109V40.993L102.131 41.3037C100.955 41.4932 99.9294 42.1855 99.9294 43.1833C99.9294 44.1812 101.036 44.8297 102.237 44.8297C103.943 44.8297 105.337 43.7738 105.337 41.9109Z" fill="#1E1E1E"/>
<path d="M92.9644 32.5319V33.4228H95.9504V36.3055H92.9644V47.2432H89.4566V36.3055H87.4199V33.4228H89.4566V32.6132C89.4566 28.9054 90.9819 27.5388 93.9498 27.5388C94.7661 27.5388 95.8626 27.5878 95.8626 27.5878V30.4099C95.5991 30.3867 95.0179 30.3854 94.6343 30.3854C93.3854 30.3854 92.9644 30.6987 92.9644 32.5319Z" fill="#1E1E1E"/>
<path d="M119.612 33.2874V36.7141C118.452 36.687 118.164 36.7154 117.852 36.7154C115.93 36.7154 114.921 37.7751 114.921 39.0592V47.2431H111.443V33.464H114.872V35.4146C115.869 34.1885 116.742 33.2886 118.113 33.2886H119.613L119.612 33.2874Z" fill="#1E1E1E"/>
<path d="M121.055 29.7021C121.055 28.574 121.871 27.6677 123.121 27.6677C124.371 27.6677 125.163 28.5753 125.163 29.7021C125.163 30.8289 124.322 31.7855 123.121 31.7855C121.92 31.7855 121.055 30.8534 121.055 29.7021Z" fill="#1E1E1E"/>
<path d="M124.897 33.4409H121.318V47.2419H124.897V33.4409Z" fill="#1E1E1E"/>
<path d="M126.484 41.6131L130.134 41.4507C130.422 43.2027 131.563 44.5448 134.091 44.5448C136.253 44.5448 137.213 43.3394 137.213 42.0876C137.213 41.0021 136.544 40.0893 135.103 39.7837L131.542 38.7962C128.707 38.1838 127.211 36.2088 127.211 33.7051C127.211 30.562 129.384 28.1318 133.708 28.1318C137.675 28.1318 139.874 30.4576 140.226 33.5298L136.731 33.8585C136.466 32.2457 135.531 31.2027 133.61 31.2027C131.688 31.2027 130.811 32.2676 130.811 33.4627C130.811 34.4915 131.258 35.1593 132.651 35.4649L136.49 36.6432C139.565 37.2556 140.82 39.5401 140.82 41.4726C140.82 44.8104 138.468 47.5641 133.949 47.5641C129.43 47.5641 126.487 45.1791 126.487 41.6118L126.484 41.6131Z" fill="#1E1E1E"/>
<path d="M58.1724 41.6131L61.8222 41.4507C62.1102 43.2027 63.2506 44.5448 65.7794 44.5448C67.9414 44.5448 68.901 43.3394 68.901 42.0876C68.901 41.0021 68.232 40.0893 66.7906 39.7837L63.2299 38.7962C60.3951 38.1838 58.8995 36.2088 58.8995 33.7051C58.8995 30.562 61.0718 28.1318 65.3958 28.1318C69.3633 28.1318 71.5615 30.4576 71.9141 33.5298L68.4192 33.8585C68.1545 32.2457 67.2194 31.2027 65.2977 31.2027C63.3759 31.2027 62.4989 32.2676 62.4989 33.4627C62.4989 34.4915 62.9458 35.1593 64.3394 35.4649L68.1777 36.6432C71.2528 37.2556 72.5082 39.5401 72.5082 41.4726C72.5082 44.8104 70.1563 47.5641 65.6373 47.5641C61.1183 47.5641 58.1749 45.1791 58.1749 41.6118L58.1724 41.6131Z" fill="#1E1E1E"/>
<path d="M142.454 29.6853C142.454 28.5572 143.27 27.6509 144.521 27.6509C145.771 27.6509 146.562 28.5585 146.562 29.6853C146.562 30.812 145.722 31.7686 144.521 31.7686C143.319 31.7686 142.454 30.8365 142.454 29.6853Z" fill="#1E1E1E"/>
<path d="M146.297 33.4241H142.718V47.2251H146.297V33.4241Z" fill="#1E1E1E"/>
<path d="M169 38.4431V47.242H165.571V39.3069C165.571 36.887 164.473 36.0529 163.224 36.0529C161.976 36.0529 160.728 37.3369 160.728 39.1986V47.242H157.274V39.3069C157.274 36.722 156.213 36.0529 154.964 36.0529C153.715 36.0529 152.337 37.2828 152.337 39.1986V47.242H148.877V33.4409H152.161V35.0757C152.909 33.869 154.473 33.1006 156.107 33.1006C157.884 33.1006 159.31 33.8806 160.03 35.4998C160.871 33.7993 162.81 33.1006 164.515 33.1006C167.182 33.1006 168.999 34.988 168.999 38.4418L169 38.4431Z" fill="#1E1E1E"/>
<path d="M20.9213 17.2393C9.38545 17.2393 0 26.831 0 38.6196C0 50.4081 9.38545 59.9999 20.9213 59.9999C32.4571 59.9999 41.8425 50.4081 41.8425 38.6196C41.8425 26.831 32.4571 17.2393 20.9213 17.2393ZM32.8006 37.2659C32.6947 34.8912 32.3137 32.5732 31.6731 30.3544C33.3314 30.0231 34.973 29.6118 36.5938 29.1245C37.9925 31.5431 38.8746 34.3097 39.0813 37.2659H32.7993H32.8006ZM39.0826 39.9732C38.8746 42.9294 37.9925 45.6974 36.5951 48.1146C34.973 47.626 33.3327 47.2148 31.6744 46.8834C32.315 44.666 32.696 42.3467 32.8019 39.9732H39.0838H39.0826ZM34.9807 26.764C33.6052 27.1533 32.2078 27.4872 30.7897 27.7618C29.825 25.3265 28.5322 23.0485 26.9333 20.9934C30.1078 22.1344 32.8833 24.1533 34.9807 26.7653V26.764ZM22.3846 57.232C22.3497 57.2345 22.3148 57.2384 22.2786 57.241V48.5491C24.225 48.5994 26.1442 48.758 28.0323 49.0197C26.6918 52.1886 24.7532 54.9849 22.3846 57.232ZM19.4606 57.232C17.0919 54.9849 15.1534 52.1886 13.8128 49.0197C15.701 48.758 17.6201 48.5994 19.5665 48.5491V57.241C19.5316 57.2384 19.4954 57.2358 19.4606 57.232ZM19.4606 20.0059C19.4954 20.0033 19.5303 19.9995 19.5665 19.9969V28.6888C17.6201 28.6385 15.701 28.4799 13.8128 28.2182C15.1546 25.0493 17.0919 22.253 19.4606 20.0059ZM22.3833 20.0059C24.7532 22.253 26.6905 25.0493 28.0311 28.2182C26.1429 28.4799 24.2237 28.6385 22.2774 28.6888V19.9969C22.3122 19.9995 22.3471 20.002 22.3833 20.0059ZM19.5652 31.3987V37.2646H11.758C11.8677 35.0252 12.25 32.8645 12.8674 30.8237C15.0746 31.1512 17.3089 31.3433 19.5652 31.3987ZM19.5652 39.972V45.8379C17.3089 45.8933 15.0746 46.0854 12.8674 46.4129C12.25 44.372 11.8677 42.2113 11.758 39.972H19.5652ZM22.2774 45.8379V39.972H30.0846C29.9748 42.2113 29.5925 44.372 28.9752 46.4129C26.768 46.0854 24.5336 45.8933 22.2774 45.8379ZM22.2774 37.2646V31.3987C24.5336 31.3433 26.768 31.1512 28.9752 30.8237C29.5925 32.8645 29.9748 35.0252 30.0846 37.2646H22.2774ZM14.9105 20.9922C13.3117 23.0472 12.0188 25.3252 11.0541 27.7605C9.636 27.4859 8.23858 27.152 6.86311 26.7627C8.96054 24.1507 11.736 22.1331 14.9105 20.9909V20.9922ZM9.0419 37.2646H2.75997C2.9679 34.3084 3.85001 31.5405 5.24743 29.1232C6.86957 29.6118 8.5098 30.0231 10.1681 30.3531C9.52751 32.5719 9.14651 34.8899 9.04061 37.2646H9.0419ZM10.1694 46.8821C8.51109 47.2148 6.86957 47.626 5.24872 48.1133C3.85001 45.6948 2.9679 42.9281 2.76126 39.972H9.04319C9.1491 42.3454 9.53009 44.6647 10.1707 46.8821H10.1694ZM6.86311 50.4726C8.23858 50.0833 9.636 49.7494 11.0541 49.476C12.0188 51.9114 13.3117 54.1894 14.9105 56.2444C11.7373 55.1035 8.96183 53.0846 6.86311 50.4739V50.4726ZM26.932 56.2431C28.5296 54.1881 29.8237 51.9101 30.7884 49.4748C32.2065 49.7494 33.6039 50.0833 34.9794 50.4713C32.882 53.0833 30.1065 55.1009 26.932 56.2418V56.2431Z" fill="#1E1E1E"/>
<path d="M53.957 31.1344L50.829 31.1099C50.3085 31.1061 49.8707 30.7232 49.7932 30.2088C47.7836 16.8409 37.6413 6.06566 24.1527 5.11422C23.8557 5.0936 23.6245 4.84478 23.6245 4.54697L23.7407 0.863687C23.7562 0.364762 24.1812 -0.027159 24.6797 0.00120366C40.3664 0.911388 52.7443 14.3192 54.484 30.5478C54.5176 30.8624 54.2709 31.137 53.9545 31.1344H53.957Z" fill="#2D93E6"/>
<path d="M23.9111 10.4889V13.7699C23.9111 14.109 24.1875 14.421 24.5233 14.4674C32.4545 15.5697 39.4158 23.0226 41.3492 30.6109C41.4125 30.8623 41.6398 31.0364 41.8994 31.0389L45.2431 31.0634C45.7042 31.0673 46.0516 30.6406 45.9496 30.1919C43.4996 19.5018 35.035 10.5172 24.646 9.80044C24.2482 9.77336 23.9124 10.0918 23.9124 10.4889H23.9111Z" fill="#2D93E6"/>
</g>
<defs>
<clipPath id="clip0_30_356">
<rect width="169" height="60" fill="white"/>
</clipPath>
</defs>
</svg>
